<svg width="41" height="51" viewBox="0 0 41 51" fill="none" xmlns="http://www.w3.org/2000/svg">
<path d="M20.5 50.3474C16.801 47.3345 13.3724 44.0314 10.25 40.4728C5.56427 35.1287 2.5739e-06 27.1697 2.5739e-06 19.5855C-0.00202955 15.7122 1.19927 11.9254 3.45188 8.7043C5.70449 5.4832 8.90714 2.97262 12.6545 1.49029C16.4019 0.00796092 20.5256 -0.379489 24.5036 0.376977C28.4817 1.13344 32.1354 2.99982 35.0022 5.73991C36.9109 7.55446 38.4238 9.71248 39.4533 12.0891C40.4828 14.4657 41.0085 17.0136 40.9999 19.5855C40.9999 27.1697 35.4356 35.1287 30.7499 40.4728C27.6275 44.0314 24.1989 47.3345 20.5 50.3474ZM20.5 11.1959C18.1698 11.1959 15.9352 12.0798 14.2875 13.6532C12.6399 15.2266 11.7143 17.3605 11.7143 19.5855C11.7143 21.8106 12.6399 23.9445 14.2875 25.5179C15.9352 27.0912 18.1698 27.9751 20.5 27.9751C22.8301 27.9751 25.0647 27.0912 26.7124 25.5179C28.36 23.9445 29.2856 21.8106 29.2856 19.5855C29.2856 17.3605 28.36 15.2266 26.7124 13.6532C25.0647 12.0798 22.8301 11.1959 20.5 11.1959Z" fill="#FF0000"/>
</svg>
